<?xml version="1.0" encoding="UTF-8" standalone="no"?>
<!DOCTYPE svg PUBLIC "-//W3C//DTD SVG 1.1//EN"
 "http://www.w3.org/Graphics/SVG/1.1/DTD/svg11.dtd">
<!-- Generated by graphviz version 2.43.0 (0)
 -->
<!-- Title: G Pages: 1 -->
<svg width="895pt" height="206pt"
 viewBox="0.00 0.00 895.00 206.00" xmlns="http://www.w3.org/2000/svg" xmlns:xlink="http://www.w3.org/1999/xlink">
<g id="graph0" class="graph" transform="scale(1 1) rotate(0) translate(4 202)">
<title>G</title>
<polygon fill="white" stroke="transparent" points="-4,4 -4,-202 891,-202 891,4 -4,4"/>
<!-- data.aws_ami.ubuntu -->
<g id="node1" class="node">
<title>data.aws_ami.ubuntu</title>
<polygon fill="none" stroke="black" points="341,-198 175,-198 175,-162 341,-162 341,-198"/>
<text text-anchor="middle" x="258" y="-176.3" font-family="sans-serif" font-size="14.00">data.aws_ami.ubuntu</text>
</g>
<!-- aws_instance.hello_world -->
<g id="node2" class="node">
<title>aws_instance.hello_world</title>
<polygon fill="none" stroke="black" points="593,-144 402,-144 402,-108 593,-108 593,-144"/>
<text text-anchor="middle" x="497.5" y="-122.3" font-family="sans-serif" font-size="14.00">aws_instance.hello_world</text>
</g>
<!-- aws_instance.hello_world&#45;&gt;data.aws_ami.ubuntu -->
<g id="edge1" class="edge">
<title>aws_instance.hello_world&#45;&gt;data.aws_ami.ubuntu</title>
<path fill="none" stroke="black" d="M417.09,-144.06C395,-149.08 370.87,-154.56 348.26,-159.7"/>
<polygon fill="black" stroke="black" points="347.31,-156.33 338.34,-161.96 348.87,-163.16 347.31,-156.33"/>
</g>
<!-- aws_security_group.instance -->
<g id="node6" class="node">
<title>aws_security_group.instance</title>
<polygon fill="none" stroke="black" points="366,-144 150,-144 150,-108 366,-108 366,-144"/>
<text text-anchor="middle" x="258" y="-122.3" font-family="sans-serif" font-size="14.00">aws_security_group.instance</text>
</g>
<!-- aws_instance.hello_world&#45;&gt;aws_security_group.instance -->
<g id="edge2" class="edge">
<title>aws_instance.hello_world&#45;&gt;aws_security_group.instance</title>
<path fill="none" stroke="black" d="M401.95,-126C393.49,-126 384.86,-126 376.24,-126"/>
<polygon fill="black" stroke="black" points="376.13,-122.5 366.13,-126 376.13,-129.5 376.13,-122.5"/>
</g>
<!-- aws_subnet.public -->
<g id="node7" class="node">
<title>aws_subnet.public</title>
<polygon fill="none" stroke="black" points="330.5,-90 185.5,-90 185.5,-54 330.5,-54 330.5,-90"/>
<text text-anchor="middle" x="258" y="-68.3" font-family="sans-serif" font-size="14.00">aws_subnet.public</text>
</g>
<!-- aws_instance.hello_world&#45;&gt;aws_subnet.public -->
<g id="edge3" class="edge">
<title>aws_instance.hello_world&#45;&gt;aws_subnet.public</title>
<path fill="none" stroke="black" d="M417.09,-107.94C392.55,-102.37 365.49,-96.21 340.8,-90.6"/>
<polygon fill="black" stroke="black" points="341.27,-87.12 330.74,-88.31 339.72,-93.94 341.27,-87.12"/>
</g>
<!-- aws_internet_gateway.gw -->
<g id="node3" class="node">
<title>aws_internet_gateway.gw</title>
<polygon fill="none" stroke="black" points="354,-36 162,-36 162,0 354,0 354,-36"/>
<text text-anchor="middle" x="258" y="-14.3" font-family="sans-serif" font-size="14.00">aws_internet_gateway.gw</text>
</g>
<!-- aws_vpc.main -->
<g id="node8" class="node">
<title>aws_vpc.main</title>
<polygon fill="none" stroke="black" points="114,-90 0,-90 0,-54 114,-54 114,-90"/>
<text text-anchor="middle" x="57" y="-68.3" font-family="sans-serif" font-size="14.00">aws_vpc.main</text>
</g>
<!-- aws_internet_gateway.gw&#45;&gt;aws_vpc.main -->
<g id="edge4" class="edge">
<title>aws_internet_gateway.gw&#45;&gt;aws_vpc.main</title>
<path fill="none" stroke="black" d="M183.8,-36.07C172.47,-38.99 160.91,-42.03 150,-45 141.6,-47.29 132.79,-49.77 124.09,-52.27"/>
<polygon fill="black" stroke="black" points="122.98,-48.95 114.34,-55.09 124.92,-55.68 122.98,-48.95"/>
</g>
<!-- aws_route_table.public -->
<g id="node4" class="node">
<title>aws_route_table.public</title>
<polygon fill="none" stroke="black" points="584.5,-38 410.5,-38 410.5,-2 584.5,-2 584.5,-38"/>
<text text-anchor="middle" x="497.5" y="-16.3" font-family="sans-serif" font-size="14.00">aws_route_table.public</text>
</g>
<!-- aws_route_table.public&#45;&gt;aws_internet_gateway.gw -->
<g id="edge5" class="edge">
<title>aws_route_table.public&#45;&gt;aws_internet_gateway.gw</title>
<path fill="none" stroke="black" d="M410.42,-19.28C395.39,-19.15 379.61,-19.02 364.14,-18.89"/>
<polygon fill="black" stroke="black" points="364.05,-15.38 354.02,-18.8 364,-22.38 364.05,-15.38"/>
</g>
<!-- aws_route_table_association.public -->
<g id="node5" class="node">
<title>aws_route_table_association.public</title>
<polygon fill="none" stroke="black" points="887,-61 629,-61 629,-25 887,-25 887,-61"/>
<text text-anchor="middle" x="758" y="-39.3" font-family="sans-serif" font-size="14.00">aws_route_table_association.public</text>
</g>
<!-- aws_route_table_association.public&#45;&gt;aws_route_table.public -->
<g id="edge6" class="edge">
<title>aws_route_table_association.public&#45;&gt;aws_route_table.public</title>
<path fill="none" stroke="black" d="M628.89,-31.6C617.42,-30.58 605.93,-29.56 594.8,-28.57"/>
<polygon fill="black" stroke="black" points="594.96,-25.07 584.69,-27.67 594.34,-32.04 594.96,-25.07"/>
</g>
<!-- aws_route_table_association.public&#45;&gt;aws_subnet.public -->
<g id="edge7" class="edge">
<title>aws_route_table_association.public&#45;&gt;aws_subnet.public</title>
<path fill="none" stroke="black" d="M628.75,-50.47C538.01,-55.75 419.04,-62.68 340.88,-67.23"/>
<polygon fill="black" stroke="black" points="340.38,-63.75 330.6,-67.83 340.79,-70.74 340.38,-63.75"/>
</g>
<!-- aws_security_group.instance&#45;&gt;aws_vpc.main -->
<g id="edge8" class="edge">
<title>aws_security_group.instance&#45;&gt;aws_vpc.main</title>
<path fill="none" stroke="black" d="M183.8,-107.93C172.47,-105.01 160.91,-101.97 150,-99 141.6,-96.71 132.79,-94.23 124.09,-91.73"/>
<polygon fill="black" stroke="black" points="124.92,-88.32 114.34,-88.91 122.98,-95.05 124.92,-88.32"/>
</g>
<!-- aws_subnet.public&#45;&gt;aws_vpc.main -->
<g id="edge9" class="edge">
<title>aws_subnet.public&#45;&gt;aws_vpc.main</title>
<path fill="none" stroke="black" d="M185.44,-72C165.51,-72 143.96,-72 124.34,-72"/>
<polygon fill="black" stroke="black" points="124.28,-68.5 114.28,-72 124.28,-75.5 124.28,-68.5"/>
</g>
</g>
</svg>
